<svg width="19" height="19" viewBox="0 0 19 19" fill="none" xmlns="http://www.w3.org/2000/svg">
<path d="M9.58008 0.271484C7.80005 0.271484 6.05999 0.799325 4.57995 1.78826C3.09991 2.77719 1.94636 4.1828 1.26517 5.82733C0.583978 7.47187 0.405748 9.28147 0.753015 11.0273C1.10028 12.7731 1.95745 14.3768 3.21612 15.6354C4.47479 16.8941 6.07844 17.7513 7.82427 18.0986C9.5701 18.4458 11.3797 18.2676 13.0242 17.5864C14.6688 16.9052 16.0744 15.7517 17.0633 14.2716C18.0522 12.7916 18.5801 11.0515 18.5801 9.27148C18.5801 8.81148 18.5401 8.35148 18.4801 7.91148C17.9804 8.61214 17.3202 9.18295 16.5547 9.57614C15.7892 9.96933 14.9407 10.1735 14.0801 10.1715C12.9353 10.1715 11.8201 9.80792 10.8953 9.13314C9.97049 8.45837 9.28393 7.50729 8.93462 6.41709C8.58531 5.32689 8.59131 4.15391 8.95175 3.06734C9.31219 1.98077 10.0084 1.03677 10.9401 0.371484C10.5001 0.311484 10.0401 0.271484 9.58008 0.271484Z" fill="black"/>
</svg>
