<svg width="15" height="18" viewBox="0 0 15 18" fill="none" xmlns="http://www.w3.org/2000/svg">
<path d="M11.9755 6.10832L10.3855 6.108L10.3865 1.108C10.3866 0.557996 9.93672 0.107904 9.38672 0.107792L5.38672 0.106976C4.83672 0.106864 4.38663 0.556773 4.38651 1.10677L4.3855 6.10677L2.7955 6.10645C1.9055 6.10627 1.45528 7.18618 2.08515 7.8163L6.67421 12.4072C7.06413 12.7973 7.69413 12.7974 8.08421 12.4075L12.6751 7.81846C13.3053 7.18859 12.8655 6.1085 11.9755 6.10832ZM0.383457 16.106C0.383344 16.656 0.833253 17.106 1.38325 17.1062L13.3833 17.1086C13.9333 17.1087 14.3833 16.6588 14.3835 16.1088C14.3836 15.5588 13.9337 15.1087 13.3837 15.1086L1.38366 15.1062C0.83366 15.106 0.383569 15.556 0.383457 16.106Z" fill="white"/>
</svg>
