<svg width="23" height="23" viewBox="0 0 23 23" fill="none" xmlns="http://www.w3.org/2000/svg">
<path d="M11.5801 17.2715C9.98878 17.2715 8.46266 16.6393 7.33744 15.5141C6.21222 14.3889 5.58008 12.8628 5.58008 11.2715C5.58008 9.68019 6.21222 8.15406 7.33744 7.02884C8.46266 5.90363 9.98878 5.27148 11.5801 5.27148C13.1714 5.27148 14.6975 5.90363 15.8227 7.02884C16.9479 8.15406 17.5801 9.68019 17.5801 11.2715C17.5801 12.8628 16.9479 14.3889 15.8227 15.5141C14.6975 16.6393 13.1714 17.2715 11.5801 17.2715ZM10.5801 0.271484H12.5801V3.27148H10.5801V0.271484ZM10.5801 19.2715H12.5801V22.2715H10.5801V19.2715ZM3.09508 4.20048L4.50908 2.78648L6.63008 4.90748L5.21608 6.32148L3.09508 4.20048ZM16.5301 17.6355L17.9441 16.2215L20.0651 18.3425L18.6511 19.7565L16.5301 17.6355ZM18.6511 2.78548L20.0651 4.20048L17.9441 6.32148L16.5301 4.90748L18.6511 2.78648V2.78548ZM5.21608 16.2215L6.63008 17.6355L4.50908 19.7565L3.09508 18.3425L5.21608 16.2215ZM22.5801 10.2715V12.2715H19.5801V10.2715H22.5801ZM3.58008 10.2715V12.2715H0.580078V10.2715H3.58008Z" fill="black"/>
</svg>
