<svg width="25" height="25" viewBox="0 0 25 25" fill="none" xmlns="http://www.w3.org/2000/svg">
<path d="M18.1189 16.9625L22.4019 21.2445L20.9869 22.6595L16.7049 18.3765C15.1116 19.6537 13.1299 20.3484 11.0879 20.3455C6.11989 20.3455 2.08789 16.3135 2.08789 11.3455C2.08789 6.37746 6.11989 2.34546 11.0879 2.34546C16.0559 2.34546 20.0879 6.37746 20.0879 11.3455C20.0908 13.3875 19.3961 15.3692 18.1189 16.9625ZM16.1129 16.2205C17.382 14.9153 18.0908 13.1659 18.0879 11.3455C18.0879 7.47746 14.9549 4.34546 11.0879 4.34546C7.21989 4.34546 4.08789 7.47746 4.08789 11.3455C4.08789 15.2125 7.21989 18.3455 11.0879 18.3455C12.9083 18.3483 14.6578 17.6396 15.9629 16.3705L16.1129 16.2205Z" fill="#B7B7B7"/>
</svg>
